<?xml version="1.0" encoding="UTF-8"?>
<!-- Created with Inkscape (http://www.inkscape.org/) -->
<svg width="796.47" height="259.97" version="1.1" viewBox="0 0 796.47 259.97" xml:space="preserve" xmlns="http://www.w3.org/2000/svg" xmlns:cc="http://creativecommons.org/ns#" xmlns:dc="http://purl.org/dc/elements/1.1/" xmlns:rdf="http://www.w3.org/1999/02/22-rdf-syntax-ns#"><metadata><rdf:RDF><cc:Work rdf:about=""><dc:format>image/svg+xml</dc:format><dc:type rdf:resource="http://purl.org/dc/dcmitype/StillImage"/><dc:title/></cc:Work></rdf:RDF></metadata><defs><clipPath id="clipPath20"><path d="m0 1950h5970v-1950h-5970z"/></clipPath></defs><g transform="matrix(1.3333 0 0 -1.3333 0 259.97)"><g transform="scale(.1)"><g clip-path="url(#clipPath20)" fill="#fff" fill-rule="evenodd"><path d="m4894.2 1654.4 161.27 279.31 161.25-279.31zm378.4 0 161.25 279.31 161.27-279.31zm-567.61-327.71 161.26 279.33 161.28-279.33zm756.79 0 161.26 279.33 161.26-279.33zm-378.39 0 161.26 279.33 161.26-279.33zm189.21-327.68 161.25 279.32 161.27-279.32zm700.89 623.13-161.24-279.31-161.28 279.31zm-567.58 327.7-161.26-279.31-161.26 279.31zm189.21-327.7-161.27-279.31-161.28 279.31s322.55 0.02 322.55 0zm-378.4 0-161.25-279.31-161.3 279.31s322.55 0.02 322.55 0zm189.19-327.7-161.26-279.32-161.26 279.32s322.52 0.03 322.52 0zm378.42 0-161.29-279.32-161.26 279.32s322.52 0.03 322.55 0"/><path d="m966.25 379.58v946.82h248.25v-112.41c35.66 45.81 77.27 80.3 125.42 103.19 48.17 22.86 101.96 34.5 161.11 34.5 104.61 0 182.85-27.09 234.85-81.51 52-54.37 77.87-135.83 77.87-245.21v-645.38h-253.56v572.24c0 68.07-11.61 116.56-34.48 145.36-22.9 29.14-60.04 43.71-111.77 43.71-59.77 0-107.03-17.84-141.79-53.5-34.77-35.69-52.34-84.42-52.34-145.96v-561.85zm1558.6 287.45h252.67c-25.56-99.859-77.07-177.93-154.58-234.52-77.64-56.641-172.12-85.032-283.58-85.032-137.03 0-245.73 45.969-325.79 137.95-80.14 92-120.1 216.71-120.1 374.26 0 154.85 39.46 277.12 118.32 366.51 78.97 89.54 186.97 134.08 324.01 134.08 145.35 0 257.53-43.93 336.51-132 78.85-87.92 118.31-213.13 118.31-375.75 0-18.14 0-31.519-0.31-40.699-0.26-8.922-1.2-17.531-2.39-25.602h-632.24c3.54-74.289 21.68-130.18 54.35-167.92 32.72-37.75 79.99-56.481 141.52-56.481 43.69 0 79.42 8.602 107.03 25.57 27.93 17.192 49.93 43.704 66.27 79.633zm-369.17 285.69h372.74c-2.38 63.921-19.17 112.53-50.85 145.96-31.62 33.43-77.29 49.96-136.4 49.96-55.04 0-98.5-16.93-130.24-50.55-31.57-33.54-49.93-82.03-55.25-145.37zm954.52-285.69c5.88-37.609 22.57-66.511 50.25-86.472 32.43-23.379 81.14-35.399 146.25-35.399 49.37 0 87.62 8.442 114.75 24.988 26.95 16.473 40.42 39.84 40.42 70.184 0 42.75-50.53 75.309-151.63 96.598-41.3 8.718-73.99 16.379-98.35 22.59-123.34 31.48-208.65 68.441-256.57 111.46-47.77 42.891-71.93 101.08-71.93 174.2 0 96.89 35.18 173.51 104.93 230.08 69.94 56.66 164.71 85.02 284.19 85.02 126.62 0 226.33-28.15 298.47-84.42 72.29-56.39 110.54-135.59 115.34-237.83h-246.47c-1.78 40.13-16.94 71.09-45.76 93.33-28.52 22-68.68 33-119.82 33-48.15 0-83.8-7.12-107.28-21.69-23.47-14.58-35.39-36.27-35.39-65.38 0-37.77 62.95-71.4 189.06-100.2 28.75-6.555 51.72-11.738 68.65-15.723 126.03-29.593 212.18-65.203 258.36-107.01 45.97-41.704 69.24-100.47 69.24-176.57 0-107.63-37.7-189.45-113.57-245.85-75.7-56.258-186.06-84.45-330.53-84.45-130.8 0-233.07 29.469-306.75 88.032-71.12 56.476-108 133.77-110.53 231.52zm1348.2 180.45c0 95.149-18.11 167.97-54.09 218.22-35.95 50.2-88.02 75.19-156.65 75.19-67.17 0-118.6-24.99-153.68-74.91-35.05-49.92-52.61-122.77-52.61-218.5 0-89.449 18.42-158.72 55.28-207.48 36.86-48.738 88.89-73.102 156.37-73.102 63.91 0 113.82 24.93 150.4 74.911 36.55 49.921 54.98 118.57 54.98 205.67zm-663.47-847.48v1326.4h241.1v-128.13c36.56 55.85 77.57 96.3 122.47 121.88 44.88 25.56 98.09 38.31 159.01 38.31 116.52 0 211.35-46.05 283.89-137.92 72.53-92.14 108.81-213.12 108.81-362.62 0-151.62-36.28-274.69-108.81-368.89-72.54-94.269-166.16-141.55-280.62-141.55-60.34 0-114.14 12.84-161.38 38.36-47.29 25.558-86.81 62.769-118.03 111.5v-497.34zm-2947.4 1326.4v-946.82h-248.23v112.41c-35.957-45.758-78.168-80.308-126.04-103.15-47.82-22.93-101.65-34.488-161.4-34.488-104.03 0-182.03 27.296-233.93 81.75-52.109 54.609-77.894 136.43-77.894 244.92v645.38h253.56v-572.23c0-67.473 11.328-115.33 33.898-144.18 22.57-28.847 60.02-43.09 112.35-43.09 59.156 0 106.42 17.852 141.49 53.473 35.062 35.68 52.637 84.449 52.637 145.98v560.05h253.56"/></g></g></g></svg>
